# xmcd CD database file
#
# Track frame offsets:
#	150
#	20865
#	36235
#	44084
#	55242
#	70829
#	77522
#	88856
#	106234
#	123198
#	133502
#	151810
#	162164
#	174454
#	189363
#
# Disc length: 2690 seconds
#
# Revision: 0
# Processed by: cddbd v1.5.2PL0 Copyright (c) Steve Scherf et al.
# Submitted via: CDex 1.51
#
DISCID=c20a800f
DTITLE=Country Fever (compilation) - Line Danse CD4
DYEAR=1900
DGENRE=Country
TTITLE0=Galea - Truck Drivin' Man
TTITLE1=Mal Tillis - Cleopatra, queen of denial
TTITLE2=Don Gibson - Blue, blue day
TTITLE3=Carolina Chocolate Drups - Coin bread and butter beans
TTITLE4=Chip Taylor and Carrie Rodriguez - My bucket's got a hole
TTITLE5=Bocar Willie - I saw the light
TTITLE6=Dale Watson - Sit and drink and cry
TTITLE7=Freddy Fender - Jambalaya
TTITLE8=Kendel Carson - I like trucks
TTITLE9=Charlie Walker - Pick me up on your way down
TTITLE10=David Frizzell - I'm gonna hire a wino
TTITLE11=Faron Young - Live fast, love hard, die young
TTITLE12=Moe Bandy - Good old boys
TTITLE13=Jeannie C Riley - Harper Valley PTA
TTITLE14=Lacy J Dalton - Dream baby
EXTD=
EXTT0=
EXTT1=
EXTT2=
EXTT3=
EXTT4=
EXTT5=
EXTT6=
EXTT7=
EXTT8=
EXTT9=
EXTT10=
EXTT11=
EXTT12=
EXTT13=
EXTT14=
PLAYORDER=
